#!OML:ASF Y:\EmotionMaleHayes\Project 1\Capture day 1\Session 1\Male1.ASF
:FULLY-SPECIFIED
:DEGREES
333
root -21.0715 16.4887 3.03138 -23.622 47.9808 -41.42
lowerback 17.2181 7.23389 -5.75272
upperback 4.94423 8.45985 -3.32134
thorax -4.54014 4.22787 -2.09752
lowerneck -20.6304 5.35296 1.29086
upperneck 10.1158 7.31735 -3.11873
head 6.57801 3.30099 -0.377098
rclavicle 7.63333e-014 3.18055e-015
rhumerus -26.7574 13.0655 -92.3191
rradius 32.7138
rwrist -10.2843
rhand -21.9701 -35.8453
rfingers 7.12502
rthumb 4.43763 -65.7788
lclavicle 7.63333e-014 3.18055e-015
lhumerus -47.8611 21.2499 10.369
lradius 29.344
lwrist -4.80695
lhand -0.930205 -11.5893
lfingers 7.12502
lthumb 24.6991 16.8365
rfemur 4.18928 -16.7085 10.03
rtibia 31.6161
rfoot -16.1746 -13.87
rtoes 4.1885
lfemur -34.6091 15.8217 2.82935
ltibia 50.2166
lfoot -24.6761 11.2649
ltoes 4.16655
334
root -20.9097 16.5764 3.03841 -24.1667 47.6547 -41.6969
lowerback 17.6904 7.08991 -5.96734
upperback 4.84661 8.18953 -3.16079
thorax -4.94276 4.09505 -1.82344
lowerneck -20.4242 5.53927 0.927744
upperneck 10.1855 7.65766 -3.04542
head 6.55781 3.45685 -0.261388
rclavicle 1.90833e-014 -5.08889e-014
rhumerus -27.9846 9.80161 -89.2385
rradius 30.7536
rwrist -9.83741
rhand -22.4233 -36.7569
rfingers 7.12502
rthumb 3.99997 -66.6991
lclavicle 1.90833e-014 -5.08889e-014
lhumerus -46.1712 19.8921 10.84
lradius 30.5495
lwrist -2.70258
lhand -4.84917 -11.6995
lfingers 7.12502
lthumb 20.9383 17.1904
rfemur 4.00994 -16.7505 8.52763
rtibia 30.6726
rfoot -16.9856 -15.217
rtoes 7.07831
lfemur -32.739 15.2394 3.2696
ltibia 48.7563
lfoot -24.7356 11.1541
ltoes 6.90563
335
root -20.7333 16.6725 3.03895 -24.4175 47.319 -41.5764
lowerback 17.8956 7.00807 -6.27012
upperback 4.95883 8.01846 -3.17738
thorax -4.96223 4.01273 -1.65519
lowerneck -20.841 5.77464 1.06076
upperneck 10.4896 7.96063 -3.13017
head 6.73825 3.58752 -0.257774
rclavicle -5.725e-014 -6.36111e-015
rhumerus -28.8526 6.48254 -86.0003
rradius 29.0154
rwrist -9.21394
rhand -22.9841 -37.8626
rfingers 7.12502
rthumb 3.45849 -67.8143
lclavicle -5.725e-014 -6.36111e-015
lhumerus -44.1718 18.8404 11.2126
lradius 31.7568
lwrist -0.460058
lhand -8.89837 -12.0649
lfingers 7.12502
lthumb 17.0443 17.2073
rfemur 3.71324 -16.544 6.82695
rtibia 29.6957
rfoot -17.8999 -16.1268
rtoes 10.6462
lfemur -30.4288 14.3609 3.41031
ltibia 46.6301
lfoot -24.7107 11.4125
ltoes 8.87559
336
root -20.5946 16.7736 3.0387 -24.4732 47.4726 -41.9636
lowerback 17.6996 6.6855 -6.5248
upperback 4.942 7.57124 -3.15839
thorax -4.90004 3.79597 -1.37096
lowerneck -21.0125 6.03551 1.37413
upperneck 10.5222 8.25687 -3.33412
head 6.80441 3.72036 -0.330772
rclavicle 1.27222e-014 -5.08889e-014
rhumerus -29.8392 3.56393 -82.6733
rradius 27.8454
rwrist -8.83363
rhand -23.4095 -39.2748
rfingers 7.12502
rthumb 3.04762 -69.2327
lclavicle 1.27222e-014 -5.08889e-014
lhumerus -42.2168 17.9118 11.5245
lradius 33.0841
lwrist 1.76502
lhand -12.8907 -12.331
lfingers 7.12502
lthumb 13.1986 17.2312
rfemur 2.84393 -16.7108 5.65128
rtibia 28.6205
rfoot -18.6126 -17.0396
rtoes 11.9528
lfemur -29.1361 13.2873 3.44746
ltibia 44.5742
lfoot -24.4183 11.889
ltoes 8.58148
337
root -20.4184 16.8873 3.03628 -24.8268 47.0483 -42.0321
lowerback 17.7495 6.57674 -6.53932
upperback 4.98442 7.42835 -3.10519
thorax -4.88536 3.72598 -1.27602
lowerneck -20.7496 6.16501 1.22333
upperneck 10.4847 8.44634 -3.16679
head 6.73941 3.8245 -0.238951
rclavicle -4.13472e-014 5.725e-014
rhumerus -31.174 1.18109 -79.2603
rradius 27.1696
rwrist -8.85205
rhand -23.5413 -40.8662
rfingers 7.12502
rthumb 2.92033 -70.8259
lclavicle -4.13472e-014 5.725e-014
lhumerus -40.2668 16.5822 12.0307
lradius 34.5488
lwrist 4.17171
lhand -16.8956 -12.2544
lfingers 7.12502
lthumb 9.33609 17.5189
rfemur 2.47793 -16.5848 4.27627
rtibia 27.4831
rfoot -18.9297 -17.2914
rtoes 11.1371
lfemur -26.6322 12.3844 3.71187
ltibia 42.0358
lfoot -23.9342 12.5923
ltoes 7.86268
338
root -20.2464 17.0085 3.03188 -25.0372 46.7908 -41.9988
lowerback 17.8208 6.45686 -6.60504
upperback 4.99664 7.25475 -3.10705
thorax -4.91139 3.64191 -1.20895
lowerneck -20.5122 6.32461 1.26091
upperneck 10.5838 8.6783 -3.31041
head 6.74736 3.9244 -0.267728
rclavicle -6.04305e-014 6.36111e-015
rhumerus -32.4733 -0.671253 -75.9158
rradius 26.693
rwrist -9.20424
rhand -23.9287 -41.9104
rfingers 7.12502
rthumb 2.54618 -71.875
lclavicle -6.04305e-014 6.36111e-015
lhumerus -38.1824 15.1101 12.5616
lradius 35.8397
lwrist 6.5922
lhand -21.0522 -13.0202
lfingers 7.12502
lthumb 5.32397 16.893
rfemur 2.07454 -16.5785 2.82627
rtibia 26.2332
rfoot -18.9954 -17.3512
rtoes 10.1725
lfemur -24.6594 11.9303 3.72876
ltibia 40.0437
lfoot -23.1599 12.9406
ltoes 6.94991
339
root -20.1 17.1355 3.02608 -25.1587 46.7532 -42.2943
lowerback 17.6737 6.20087 -6.5839
upperback 4.9712 6.93614 -3.13278
thorax -4.84544 3.48673 -1.15826
lowerneck -20.2936 6.51387 1.3683
upperneck 10.5453 8.89986 -3.28548
head 6.70748 4.04112 -0.256863
rclavicle 1.59028e-014 -1.59028e-014
rhumerus -33.4711 -2.34091 -72.6887
rradius 26.1994
rwrist -9.63353
rhand -24.1662 -43.1243
rfingers 7.12502
rthumb 2.31686 -73.0914
lclavicle 1.59028e-014 -1.59028e-014
lhumerus -36.0517 13.6806 12.9953
lradius 36.9443
lwrist 9.02833
lhand -25.3657 -14.899
lfingers 7.12502
lthumb 1.15838 15.0776
rfemur 1.34505 -16.5851 1.8486
rtibia 24.8946
rfoot -19.0324 -17.4676
rtoes 10.7727
lfemur -23.6317 12.0982 3.77406
ltibia 38.7224
lfoot -22.1061 13.1224
ltoes 3.7389
340
root -19.942 17.2702 3.0206 -25.47 46.2469 -42.579
lowerback 17.5608 6.05601 -6.40814
upperback 4.97749 6.79037 -3.10205
thorax -4.75971 3.4141 -1.17442
lowerneck -20.004 6.72777 1.51405
upperneck 10.4812 9.14479 -3.26031
head 6.65016 4.17231 -0.252061
rclavicle 2.22639e-014 4.13472e-014
rhumerus -34.5064 -3.69353 -69.5302
rradius 25.9931
rwrist -10.0138
rhand -24.1096 -44.1377
rfingers 7.12502
rthumb 2.37147 -74.1042
lclavicle 2.22639e-014 4.13472e-014
lhumerus -34.0704 11.8124 13.489
lradius 38.2504
lwrist 11.8399
lhand -29.2664 -16.9072
lfingers 7.12502
lthumb -2.60898 13.0566
rfemur 0.653128 -16.3662 1.15487
rtibia 23.658
rfoot -19.0801 -17.3535
rtoes 10.8613
lfemur -21.7917 12.1701 4.27517
ltibia 36.8478
lfoot -21.3529 12.9236
ltoes 3.22798
341
root -19.7674 17.409 3.01482 -25.8717 45.4615 -42.6349
lowerback 17.6396 6.04734 -6.34148
upperback 4.9681 6.7867 -2.97923
thorax -4.8197 3.41122 -1.08933
lowerneck -19.8379 6.95213 1.54845
upperneck 10.7422 9.44147 -3.20079
head 6.71312 4.31744 -0.203315
rclavicle 3.81667e-014 3.81667e-014
rhumerus -35.7888 -3.65743 -66.8975
rradius 26.5864
rwrist -11.6819
rhand -24.4204 -45.2601
rfingers 7.12502
rthumb 2.07138 -75.2298
lclavicle 3.81667e-014 3.81667e-014
lhumerus -32.2637 9.81731 13.9384
lradius 39.4141
lwrist 14.4757
lhand -32.3153 -20.0004
lfingers 7.12502
lthumb -5.55313 9.90688
rfemur 0.134624 -16.3573 0.340899
rtibia 22.5525
rfoot -18.883 -17.061
rtoes 8.85934
lfemur -19.2224 12.0623 4.88216
ltibia 34.5598
lfoot -20.4408 12.6271
ltoes 3.25651
342
root -19.6046 17.5499 3.00665 -26.0966 44.869 -42.5928
lowerback 17.4877 5.92574 -6.26646
upperback 5.0787 6.66278 -3.02304
thorax -4.60339 3.34895 -1.12353
lowerneck -19.6981 7.22398 1.68194
upperneck 10.8364 9.76139 -3.08829
head 6.72788 4.4864 -0.152645
rclavicle 3.18055e-015 -3.81667e-014
rhumerus -36.6246 -3.77323 -64.5051
rradius 27.0713
rwrist -12.9977
rhand -24.6443 -45.9696
rfingers 7.12502
rthumb 1.8551 -75.9412
lclavicle 3.18055e-015 -3.81667e-014
lhumerus -30.342 8.42521 14.0233
lradius 40.1483
lwrist 16.3564
lhand -34.6751 -23.8892
lfingers 7.12502
lthumb -7.83119 5.94577
rfemur -0.513171 -16.5464 -0.512927
rtibia 21.5143
rfoot -18.7249 -16.9668
rtoes 7.50665
lfemur -17.2245 12.435 5.22622
ltibia 32.8727
lfoot -18.6298 12.8416
ltoes -1.01363
343
root -19.4461 17.6969 3.00043 -26.1778 44.2866 -42.3204
lowerback 17.353 5.82132 -6.4086
upperback 5.19384 6.52044 -3.1119
thorax -4.40793 3.27814 -1.08557
lowerneck -19.4492 7.52405 1.83131
upperneck 10.7408 10.1135 -3.00057
head 6.66596 4.67519 -0.116634
rclavicle -7.95139e-014 -9.85972e-014
rhumerus -37.2154 -3.91194 -62.1279
rradius 27.5456
rwrist -14.4926
rhand -24.9484 -46.5834
rfingers 7.12502
rthumb 1.56137 -76.5574
lclavicle -7.95139e-014 -9.85972e-014
lhumerus -28.608 7.10883 13.9847
lradius 40.8145
lwrist 17.7551
lhand -36.5479 -27.8396
lfingers 7.12502
lthumb -9.63843 1.91985
rfemur -1.21724 -16.6781 -1.38533
rtibia 20.5508
rfoot -18.7525 -17.1392
rtoes 7.39686
lfemur -15.2989 12.9737 5.51168
ltibia 31.326
lfoot -16.5876 12.8645
ltoes -3.00545
344
root -19.2907 17.8467 2.99418 -26.4388 43.8569 -42.1684
lowerback 17.4052 5.66254 -6.50904
upperback 5.26955 6.2945 -3.19955
thorax -4.34612 3.16773 -1.07265
lowerneck -19.2563 7.84843 1.98232
upperneck 10.8322 10.4904 -2.80509
head 6.66832 4.88083 -0.0383015
rclavicle 3.18055e-014 2.22639e-014
rhumerus -37.6906 -3.77346 -59.9445
rradius 27.9176
rwrist -15.7459
rhand -25.0047 -45.8794
rfingers 7.12502
rthumb 1.507 -75.8538
lclavicle 3.18055e-014 2.22639e-014
lhumerus -27.0446 5.71403 13.846
lradius 41.3795
lwrist 18.645
lhand -37.8861 -32.2922
lfingers 7.12502
lthumb -10.9294 -2.59662
rfemur -1.7262 -16.9532 -2.18073
rtibia 19.5768
rfoot -18.9259 -17.6249
rtoes 7.47672
lfemur -13.4134 13.269 5.88909
ltibia 29.835
lfoot -14.6501 12.2445
ltoes -1.72546
345
root -19.144 17.9971 2.98546 -26.7638 43.5001 -42.078
lowerback 17.6878 5.48281 -6.60037
upperback 5.21477 6.0089 -3.27125
thorax -4.54475 3.03086 -1.06544
lowerneck -19.0268 8.19139 2.22909
upperneck 11.2028 10.8949 -2.69309
head 6.76653 5.09079 0.00815243
rclavicle 5.08889e-014 9.54166e-015
rhumerus -38.163 -3.35371 -57.9291
rradius 28.4275
rwrist -16.7248
rhand -24.7953 -45.7964
rfingers 7.12502
rthumb 1.70923 -75.7693
lclavicle 5.08889e-014 9.54166e-015
lhumerus -25.5001 4.42777 13.6786
lradius 41.5553
lwrist 18.6691
lhand -38.6547 -36.7124
lfingers 7.12502
lthumb -11.6707 -7.05744
rfemur -2.21551 -17.2687 -2.86565
rtibia 18.6531
rfoot -19.4459 -18.2334
rtoes 8.66783
lfemur -11.7127 13.5722 6.31924
ltibia 28.6315
lfoot -12.5338 11.3321
ltoes -0.654078
